<svg id="linkedin-logo" xmlns="http://www.w3.org/2000/svg" width="37" height="37" viewBox="0 0 37 37">
  <path id="Path_2" data-name="Path 2" d="M35.032,0H1.968A1.968,1.968,0,0,0,0,1.968V35.032A1.968,1.968,0,0,0,1.968,37H35.032A1.968,1.968,0,0,0,37,35.032V1.968A1.968,1.968,0,0,0,35.032,0ZM10.4,33.143H4.316V13.581H10.4V33.143ZM7.358,10.907a3.525,3.525,0,1,1,3.523-3.526A3.526,3.526,0,0,1,7.358,10.907ZM33.169,33.143H27.093V23.63c0-2.269-.041-5.187-3.16-5.187-3.162,0-3.648,2.471-3.648,5.022v9.677H14.209V13.581h5.832v2.673h.081a6.39,6.39,0,0,1,5.752-3.16c6.157,0,7.293,4.052,7.293,9.318v10.73Z"/>
</svg>
