<svg xmlns="http://www.w3.org/2000/svg" width="45.535" height="37" viewBox="0 0 45.535 37">
  <g id="Logo_1_" transform="translate(-1 -1.497)">
    <path id="white_background" d="M41.873,10.708c.028.4.028.8.028,1.208C41.9,24.261,32.5,38.5,15.32,38.5V38.49A26.447,26.447,0,0,1,1,34.3a19,19,0,0,0,2.224.135,18.759,18.759,0,0,0,11.6-4.007A9.354,9.354,0,0,1,6.1,23.942a9.312,9.312,0,0,0,4.218-.161,9.343,9.343,0,0,1-7.494-9.157v-.118a9.283,9.283,0,0,0,4.24,1.169A9.354,9.354,0,0,1,4.171,3.2a26.515,26.515,0,0,0,19.254,9.76,9.351,9.351,0,0,1,15.92-8.521,18.746,18.746,0,0,0,5.933-2.268A9.377,9.377,0,0,1,41.17,7.34a18.579,18.579,0,0,0,5.365-1.471A18.979,18.979,0,0,1,41.873,10.708Z"/>
  </g>
</svg>
